STARTFONT 2.1
FONT -FontForge-Zen Loop-Book-R-Normal--28-280-72-72-P-89-ISO10646-1
SIZE 28 72 72
FONTBOUNDINGBOX 24 30 -3 -7
COMMENT "Generated by fontforge, http://fontforge.sourceforge.net"
COMMENT "Copyright 2021 The Zen-Loop Project Authors (https://github.com/googlefonts/zen-loop)"
STARTPROPERTIES 39
FOUNDRY "FontForge"
FAMILY_NAME "Zen Loop"
WEIGHT_NAME "Book"
SLANT "R"
SETWIDTH_NAME "Normal"
ADD_STYLE_NAME ""
PIXEL_SIZE 28
POINT_SIZE 280
RESOLUTION_X 72
RESOLUTION_Y 72
SPACING "P"
AVERAGE_WIDTH 89
CHARSET_REGISTRY "ISO10646"
CHARSET_ENCODING "1"
FONTNAME_REGISTRY ""
CHARSET_COLLECTIONS "ISO10646-1"
FONT_NAME "ZenLoop-Regular"
FACE_NAME "Zen Loop Regular"
COPYRIGHT "Copyright 2021 The Zen-Loop Project Authors (https://github.com/googlefonts/zen-loop)"
FONT_VERSION "1.000; ttfautohint (v1.8.3)"
FONT_ASCENT 22
FONT_DESCENT 6
UNDERLINE_POSITION -4
UNDERLINE_THICKNESS 1
X_HEIGHT 12
CAP_HEIGHT 18
RAW_ASCENT 800
RAW_DESCENT 200
NORM_SPACE 7
RELATIVE_WEIGHT 40
RELATIVE_SETWIDTH 50
SUPERSCRIPT_X 0
SUPERSCRIPT_Y 9
SUPERSCRIPT_SIZE 16
SUBSCRIPT_X 0
SUBSCRIPT_Y 2
SUBSCRIPT_SIZE 16
AVG_LOWERCASE_WIDTH 81
AVG_UPPERCASE_WIDTH 107
ENDPROPERTIES
CHARS 248
STARTCHAR CR
ENCODING 13
SWIDTH 600 0
DWIDTH 17 0
BBX 1 1 0 0
BITMAP
00
ENDCHAR
STARTCHAR space
ENCODING 32
SWIDTH 240 0
DWIDTH 7 0
BBX 1 1 0 0
BITMAP
00
ENDCHAR
STARTCHAR exclam
ENCODING 33
SWIDTH 141 0
DWIDTH 4 0
BBX 1 19 1 0
BITMAP
80
80
80
80
80
80
80
80
80
80
80
80
80
80
00
00
80
80
80
ENDCHAR
STARTCHAR quotedbl
ENCODING 34
SWIDTH 195 0
DWIDTH 5 0
BBX 3 5 1 14
BITMAP
A0
A0
A0
A0
A0
ENDCHAR
STARTCHAR numbersign
ENCODING 35
SWIDTH 454 0
DWIDTH 13 0
BBX 11 19 1 0
BITMAP
0840
0840
0880
0880
1080
1080
7FE0
1080
1100
2100
2100
2100
FFC0
2200
2200
4200
4200
4200
4200
ENDCHAR
STARTCHAR dollar
ENCODING 36
SWIDTH 356 0
DWIDTH 10 0
BBX 9 24 0 -2
BITMAP
0800
0800
0800
1E00
2900
4880
4800
4800
4800
2800
1800
0800
0600
0900
0880
0880
0880
8880
4880
2900
1E00
0800
0800
0800
ENDCHAR
STARTCHAR percent
ENCODING 37
SWIDTH 470 0
DWIDTH 13 0
BBX 11 19 1 0
BITMAP
7040
4880
8880
8480
8500
8500
8A00
4A00
3400
0400
0580
0A40
0A20
1220
1420
2420
2220
2220
41C0
ENDCHAR
STARTCHAR ampersand
ENCODING 38
SWIDTH 520 0
DWIDTH 15 0
BBX 13 19 1 0
BITMAP
0600
0900
1100
1100
1100
1100
0A00
0C00
0800
1820
2450
4480
8280
8280
8100
8100
8280
4240
3C38
ENDCHAR
STARTCHAR quotesingle
ENCODING 39
SWIDTH 121 0
DWIDTH 3 0
BBX 1 5 1 14
BITMAP
80
80
80
80
80
ENDCHAR
STARTCHAR parenleft
ENCODING 40
SWIDTH 233 0
DWIDTH 7 0
BBX 4 23 2 -2
BITMAP
10
20
20
40
40
40
80
80
80
80
80
80
80
80
80
80
80
40
40
40
20
20
10
ENDCHAR
STARTCHAR parenright
ENCODING 41
SWIDTH 233 0
DWIDTH 7 0
BBX 4 23 1 -2
BITMAP
80
80
40
40
20
20
20
20
10
10
10
10
10
10
10
20
20
20
20
40
40
80
80
ENDCHAR
STARTCHAR asterisk
ENCODING 42
SWIDTH 313 0
DWIDTH 9 0
BBX 7 6 1 13
BITMAP
10
10
DE
30
28
44
ENDCHAR
STARTCHAR plus
ENCODING 43
SWIDTH 577 0
DWIDTH 16 0
BBX 14 13 1 0
BITMAP
0100
0100
0100
0100
0100
0100
FFFC
0100
0100
0100
0100
0100
0100
ENDCHAR
STARTCHAR comma
ENCODING 44
SWIDTH 145 0
DWIDTH 4 0
BBX 1 5 1 -2
BITMAP
80
80
80
80
80
ENDCHAR
STARTCHAR hyphen
ENCODING 45
SWIDTH 286 0
DWIDTH 8 0
BBX 6 1 1 7
BITMAP
FC
ENDCHAR
STARTCHAR period
ENCODING 46
SWIDTH 181 0
DWIDTH 5 0
BBX 1 3 2 0
BITMAP
80
80
80
ENDCHAR
STARTCHAR slash
ENCODING 47
SWIDTH 292 0
DWIDTH 8 0
BBX 8 22 0 -2
BITMAP
01
01
02
02
02
04
04
04
08
08
08
10
10
10
20
20
20
40
40
40
80
80
ENDCHAR
STARTCHAR zero
ENCODING 48
SWIDTH 378 0
DWIDTH 11 0
BBX 8 19 1 0
BITMAP
1C
22
41
41
81
81
81
81
81
81
81
81
81
81
81
41
41
22
1C
ENDCHAR
STARTCHAR one
ENCODING 49
SWIDTH 303 0
DWIDTH 8 0
BBX 7 19 1 0
BITMAP
30
D0
10
10
10
10
10
10
10
10
10
10
10
10
10
10
10
10
FE
ENDCHAR
STARTCHAR two
ENCODING 50
SWIDTH 343 0
DWIDTH 10 0
BBX 8 19 1 0
BITMAP
3C
42
82
01
01
01
02
02
02
04
08
10
10
20
40
80
80
80
FF
ENDCHAR
STARTCHAR three
ENCODING 51
SWIDTH 377 0
DWIDTH 11 0
BBX 8 19 1 0
BITMAP
3C
42
41
01
01
01
02
1A
4E
31
01
01
01
01
01
01
01
82
7C
ENDCHAR
STARTCHAR four
ENCODING 52
SWIDTH 389 0
DWIDTH 11 0
BBX 9 19 1 0
BITMAP
0200
0400
0400
0800
0800
1000
1200
2200
2200
4200
4200
4200
8200
FF80
0200
0200
0200
0200
0200
ENDCHAR
STARTCHAR five
ENCODING 53
SWIDTH 372 0
DWIDTH 10 0
BBX 8 20 1 0
BITMAP
01
3C
20
20
20
20
20
20
3C
62
A1
C1
C1
01
01
01
01
01
82
7C
ENDCHAR
STARTCHAR six
ENCODING 54
SWIDTH 360 0
DWIDTH 10 0
BBX 8 19 1 0
BITMAP
04
08
10
20
20
40
40
40
9C
A2
81
81
81
81
81
81
41
42
3C
ENDCHAR
STARTCHAR seven
ENCODING 55
SWIDTH 321 0
DWIDTH 9 0
BBX 7 19 1 0
BITMAP
FE
02
04
04
04
08
08
08
10
10
10
20
20
20
40
40
40
80
80
ENDCHAR
STARTCHAR eight
ENCODING 56
SWIDTH 377 0
DWIDTH 11 0
BBX 8 19 1 0
BITMAP
3C
42
41
81
81
81
41
22
14
1C
22
41
81
81
81
81
81
43
3C
ENDCHAR
STARTCHAR nine
ENCODING 57
SWIDTH 360 0
DWIDTH 10 0
BBX 8 19 1 0
BITMAP
3C
42
82
81
81
81
81
81
81
45
39
02
02
02
04
04
08
10
20
ENDCHAR
STARTCHAR colon
ENCODING 58
SWIDTH 181 0
DWIDTH 5 0
BBX 1 14 2 0
BITMAP
80
80
80
00
00
00
00
00
00
00
00
80
80
80
ENDCHAR
STARTCHAR semicolon
ENCODING 59
SWIDTH 165 0
DWIDTH 5 0
BBX 1 16 1 -2
BITMAP
80
80
80
00
00
00
00
00
00
00
00
80
80
80
80
80
ENDCHAR
STARTCHAR less
ENCODING 60
SWIDTH 482 0
DWIDTH 14 0
BBX 11 11 1 1
BITMAP
0060
0180
0600
1800
2000
C000
3000
0C00
0300
00C0
0020
ENDCHAR
STARTCHAR equal
ENCODING 61
SWIDTH 577 0
DWIDTH 16 0
BBX 14 5 1 4
BITMAP
FFFC
0000
0000
0000
FFFC
ENDCHAR
STARTCHAR greater
ENCODING 62
SWIDTH 482 0
DWIDTH 14 0
BBX 11 11 1 1
BITMAP
C000
3000
0800
0600
0180
0060
00C0
0300
0C00
3000
C000
ENDCHAR
STARTCHAR question
ENCODING 63
SWIDTH 300 0
DWIDTH 8 0
BBX 6 19 1 0
BITMAP
78
84
84
04
04
04
08
10
10
20
20
40
20
20
00
00
20
20
20
ENDCHAR
STARTCHAR at
ENCODING 64
SWIDTH 748 0
DWIDTH 21 0
BBX 19 19 1 0
BITMAP
03F800
0C0600
103100
204880
408840
410840
810820
820020
823020
825020
845020
846040
846040
444080
44C100
233E00
100080
0C0300
03FC00
ENDCHAR
STARTCHAR A
ENCODING 65
SWIDTH 414 0
DWIDTH 12 0
BBX 11 19 0 0
BITMAP
0400
0400
0600
0A00
0A00
0900
0900
1100
1080
1080
2080
3F80
2040
2040
4040
4040
4020
4020
8020
ENDCHAR
STARTCHAR B
ENCODING 66
SWIDTH 375 0
DWIDTH 11 0
BBX 7 19 2 0
BITMAP
F8
84
84
82
82
82
82
F2
CC
9C
82
82
82
82
82
82
82
84
F8
ENDCHAR
STARTCHAR C
ENCODING 67
SWIDTH 366 0
DWIDTH 10 0
BBX 8 19 1 0
BITMAP
1F
20
40
40
80
80
80
80
80
80
80
80
80
80
80
40
40
21
1E
ENDCHAR
STARTCHAR D
ENCODING 68
SWIDTH 396 0
DWIDTH 11 0
BBX 8 19 2 0
BITMAP
F8
84
82
82
81
81
81
81
81
81
81
81
81
81
81
82
82
84
F8
ENDCHAR
STARTCHAR E
ENCODING 69
SWIDTH 309 0
DWIDTH 9 0
BBX 6 19 2 0
BITMAP
FC
80
80
80
80
80
80
80
F8
80
80
80
80
80
80
80
80
80
FC
ENDCHAR
STARTCHAR F
ENCODING 70
SWIDTH 299 0
DWIDTH 8 0
BBX 6 19 2 0
BITMAP
FC
80
80
80
80
80
80
80
F8
80
80
80
80
80
80
80
80
80
80
ENDCHAR
STARTCHAR G
ENCODING 71
SWIDTH 382 0
DWIDTH 11 0
BBX 9 19 1 0
BITMAP
1E00
2100
4000
4000
8000
8000
8000
8000
8000
8000
8000
8780
8080
8080
8080
4080
4080
2080
1F00
ENDCHAR
STARTCHAR H
ENCODING 72
SWIDTH 425 0
DWIDTH 12 0
BBX 8 19 2 0
BITMAP
81
81
81
81
81
81
81
81
FF
81
81
81
81
81
81
81
81
81
81
ENDCHAR
STARTCHAR I
ENCODING 73
SWIDTH 141 0
DWIDTH 4 0
BBX 1 19 1 0
BITMAP
80
80
80
80
80
80
80
80
80
80
80
80
80
80
80
80
80
80
80
ENDCHAR
STARTCHAR J
ENCODING 74
SWIDTH 142 0
DWIDTH 4 0
BBX 4 24 -2 -5
BITMAP
10
10
10
10
10
10
10
10
10
10
10
10
10
10
10
10
10
10
10
10
10
10
10
E0
ENDCHAR
STARTCHAR K
ENCODING 75
SWIDTH 401 0
DWIDTH 11 0
BBX 10 19 0 0
BITMAP
2040
2080
2100
2100
2100
2200
2200
7C00
AA00
E100
2100
2080
2080
2080
2080
2040
2040
2040
2040
ENDCHAR
STARTCHAR L
ENCODING 76
SWIDTH 347 0
DWIDTH 10 0
BBX 7 19 2 0
BITMAP
80
80
80
80
80
80
80
80
80
80
80
80
80
80
80
80
80
80
FE
ENDCHAR
STARTCHAR M
ENCODING 77
SWIDTH 534 0
DWIDTH 15 0
BBX 13 19 1 0
BITMAP
2020
5050
4890
4510
4210
4510
4510
4510
4510
4210
4210
4510
8510
8508
8208
8008
8008
8008
8008
ENDCHAR
STARTCHAR N
ENCODING 78
SWIDTH 422 0
DWIDTH 12 0
BBX 8 19 2 0
BITMAP
81
81
81
C1
C1
A1
A1
91
91
91
89
89
85
85
83
83
83
81
81
ENDCHAR
STARTCHAR O
ENCODING 79
SWIDTH 446 0
DWIDTH 12 0
BBX 10 19 1 0
BITMAP
1E00
2100
4080
4040
8040
8040
8040
8040
8040
8040
8040
8040
8040
8040
8040
4040
4080
2100
1E00
ENDCHAR
STARTCHAR P
ENCODING 80
SWIDTH 341 0
DWIDTH 10 0
BBX 7 19 2 0
BITMAP
F8
84
82
82
82
82
82
84
88
F0
80
80
80
80
80
80
80
80
80
ENDCHAR
STARTCHAR Q
ENCODING 81
SWIDTH 446 0
DWIDTH 12 0
BBX 10 26 1 -7
BITMAP
1E00
2100
4080
4040
8040
8040
8040
8040
8040
8040
8040
8040
C040
A0C0
9340
4C40
4480
2B00
1E00
0A00
0C00
0400
0C00
0A00
0A00
0400
ENDCHAR
STARTCHAR R
ENCODING 82
SWIDTH 380 0
DWIDTH 11 0
BBX 10 19 0 0
BITMAP
3E00
4100
4080
4080
4080
4080
4080
7900
C600
7A00
4100
4100
4080
4080
4080
4080
4040
4040
4040
ENDCHAR
STARTCHAR S
ENCODING 83
SWIDTH 356 0
DWIDTH 10 0
BBX 9 19 0 0
BITMAP
1E00
2100
4080
4000
4000
4000
2000
2000
1800
0400
0200
0100
0080
0080
0080
8080
4080
2100
1E00
ENDCHAR
STARTCHAR T
ENCODING 84
SWIDTH 377 0
DWIDTH 11 0
BBX 10 19 0 0
BITMAP
FFC0
0400
0400
0400
0400
0400
0400
0400
0400
0400
0400
0400
0400
0400
0400
0400
0400
0400
0400
ENDCHAR
STARTCHAR U
ENCODING 85
SWIDTH 412 0
DWIDTH 12 0
BBX 9 19 1 0
BITMAP
8080
8080
8080
8080
8080
8080
8080
8080
8080
8080
8080
8080
8080
8080
8080
8080
4080
4100
3E00
ENDCHAR
STARTCHAR V
ENCODING 86
SWIDTH 384 0
DWIDTH 11 0
BBX 10 19 0 0
BITMAP
8040
4040
4040
4040
4080
2080
2080
2080
2100
1100
1100
1100
1200
0A00
0A00
0A00
0C00
0400
0400
ENDCHAR
STARTCHAR W
ENCODING 87
SWIDTH 534 0
DWIDTH 15 0
BBX 13 19 1 0
BITMAP
8008
8008
8008
8008
8008
8008
8210
4510
4510
4510
4510
4210
4210
4510
4510
4890
5050
6050
4020
ENDCHAR
STARTCHAR X
ENCODING 88
SWIDTH 318 0
DWIDTH 9 0
BBX 9 19 0 0
BITMAP
4100
4100
4200
2200
2200
1400
1400
1800
0800
0800
1400
1400
1400
2200
2200
4100
4100
4100
8080
ENDCHAR
STARTCHAR Y
ENCODING 89
SWIDTH 370 0
DWIDTH 10 0
BBX 10 19 0 0
BITMAP
8040
4040
4080
2080
2100
2100
1200
1200
0A00
0C00
0400
0400
0400
0400
0400
0400
0400
0400
0400
ENDCHAR
STARTCHAR Z
ENCODING 90
SWIDTH 309 0
DWIDTH 9 0
BBX 8 19 0 0
BITMAP
7F
01
02
02
02
04
04
08
08
08
10
10
10
20
20
40
40
40
FF
ENDCHAR
STARTCHAR bracketleft
ENCODING 91
SWIDTH 193 0
DWIDTH 5 0
BBX 3 23 2 -2
BITMAP
E0
80
80
80
80
80
80
80
80
80
80
80
80
80
80
80
80
80
80
80
80
80
E0
ENDCHAR
STARTCHAR backslash
ENCODING 92
SWIDTH 292 0
DWIDTH 8 0
BBX 8 22 0 -2
BITMAP
80
80
40
40
40
20
20
20
10
10
10
08
08
08
04
04
04
02
02
02
01
01
ENDCHAR
STARTCHAR bracketright
ENCODING 93
SWIDTH 193 0
DWIDTH 5 0
BBX 4 23 0 -2
BITMAP
F0
10
10
10
10
10
10
10
10
10
10
10
10
10
10
10
10
10
10
10
10
10
F0
ENDCHAR
STARTCHAR asciicircum
ENCODING 94
SWIDTH 416 0
DWIDTH 12 0
BBX 10 10 1 8
BITMAP
0C00
1400
1200
2200
2100
4100
4080
8080
8040
8040
ENDCHAR
STARTCHAR underscore
ENCODING 95
SWIDTH 556 0
DWIDTH 16 0
BBX 13 1 1 -1
BITMAP
FFF8
ENDCHAR
STARTCHAR grave
ENCODING 96
SWIDTH 201 0
DWIDTH 6 0
BBX 2 3 2 15
BITMAP
80
80
40
ENDCHAR
STARTCHAR a
ENCODING 97
SWIDTH 315 0
DWIDTH 9 0
BBX 7 13 1 0
BITMAP
38
C4
04
04
04
04
3C
44
84
84
84
8C
76
ENDCHAR
STARTCHAR b
ENCODING 98
SWIDTH 298 0
DWIDTH 8 0
BBX 5 19 2 0
BITMAP
80
80
80
80
80
80
F0
90
88
88
88
88
88
88
88
88
88
90
F0
ENDCHAR
STARTCHAR c
ENCODING 99
SWIDTH 275 0
DWIDTH 8 0
BBX 6 13 1 0
BITMAP
38
44
44
80
80
80
80
80
80
80
44
44
38
ENDCHAR
STARTCHAR d
ENCODING 100
SWIDTH 298 0
DWIDTH 8 0
BBX 6 19 1 0
BITMAP
04
04
04
04
04
04
3C
44
84
84
84
84
84
84
84
84
84
44
3C
ENDCHAR
STARTCHAR e
ENCODING 101
SWIDTH 285 0
DWIDTH 8 0
BBX 6 13 1 0
BITMAP
38
48
44
84
84
FC
80
80
80
80
44
44
38
ENDCHAR
STARTCHAR f
ENCODING 102
SWIDTH 178 0
DWIDTH 5 0
BBX 7 19 0 0
BITMAP
0E
10
20
20
20
20
F8
20
20
20
20
20
20
20
20
20
20
20
20
ENDCHAR
STARTCHAR g
ENCODING 103
SWIDTH 302 0
DWIDTH 8 0
BBX 9 20 0 -5
BITMAP
0200
0200
1C00
2200
4200
4200
4200
4200
4200
2200
3C00
4000
4000
3800
4600
8100
8080
8080
8100
7E00
ENDCHAR
STARTCHAR h
ENCODING 104
SWIDTH 307 0
DWIDTH 9 0
BBX 5 19 2 0
BITMAP
80
80
80
80
80
80
F0
88
88
88
88
88
88
88
88
88
88
88
88
ENDCHAR
STARTCHAR i
ENCODING 105
SWIDTH 141 0
DWIDTH 4 0
BBX 1 17 1 0
BITMAP
80
80
80
00
80
80
80
80
80
80
80
80
80
80
80
80
80
ENDCHAR
STARTCHAR j
ENCODING 106
SWIDTH 141 0
DWIDTH 4 0
BBX 4 22 -2 -5
BITMAP
10
10
10
00
10
10
10
10
10
10
10
10
10
10
10
10
10
10
10
10
10
E0
ENDCHAR
STARTCHAR k
ENCODING 107
SWIDTH 287 0
DWIDTH 8 0
BBX 6 19 2 0
BITMAP
80
80
80
80
80
80
88
88
90
A0
C0
A0
A0
90
90
90
88
88
84
ENDCHAR
STARTCHAR l
ENCODING 108
SWIDTH 141 0
DWIDTH 4 0
BBX 1 19 1 0
BITMAP
80
80
80
80
80
80
80
80
80
80
80
80
80
80
80
80
80
80
80
ENDCHAR
STARTCHAR m
ENCODING 109
SWIDTH 407 0
DWIDTH 11 0
BBX 8 13 2 0
BITMAP
81
C7
A9
91
91
99
99
99
91
81
81
81
81
ENDCHAR
STARTCHAR n
ENCODING 110
SWIDTH 307 0
DWIDTH 9 0
BBX 5 13 2 0
BITMAP
F0
88
88
88
88
88
88
88
88
88
88
88
88
ENDCHAR
STARTCHAR o
ENCODING 111
SWIDTH 309 0
DWIDTH 9 0
BBX 7 13 1 0
BITMAP
38
44
44
84
82
82
82
82
82
84
44
44
38
ENDCHAR
STARTCHAR p
ENCODING 112
SWIDTH 299 0
DWIDTH 8 0
BBX 7 20 0 -5
BITMAP
40
40
3C
C2
42
42
42
42
42
42
42
42
42
22
5C
40
40
40
40
40
ENDCHAR
STARTCHAR q
ENCODING 113
SWIDTH 286 0
DWIDTH 8 0
BBX 7 18 1 -5
BITMAP
3C
44
84
84
84
84
84
84
84
84
84
44
3C
04
04
04
04
02
ENDCHAR
STARTCHAR r
ENCODING 114
SWIDTH 277 0
DWIDTH 8 0
BBX 5 13 2 0
BITMAP
F0
88
88
80
80
80
80
80
80
80
80
80
80
ENDCHAR
STARTCHAR s
ENCODING 115
SWIDTH 257 0
DWIDTH 7 0
BBX 6 13 1 0
BITMAP
70
88
80
80
80
40
30
08
08
04
84
88
70
ENDCHAR
STARTCHAR t
ENCODING 116
SWIDTH 207 0
DWIDTH 6 0
BBX 5 17 0 0
BITMAP
20
20
20
20
F8
20
20
20
20
20
20
20
20
20
20
20
18
ENDCHAR
STARTCHAR u
ENCODING 117
SWIDTH 307 0
DWIDTH 9 0
BBX 6 13 1 0
BITMAP
84
84
84
84
84
84
84
84
84
84
84
84
7C
ENDCHAR
STARTCHAR v
ENCODING 118
SWIDTH 285 0
DWIDTH 8 0
BBX 6 13 1 0
BITMAP
84
84
84
84
84
48
48
48
48
30
30
30
20
ENDCHAR
STARTCHAR w
ENCODING 119
SWIDTH 396 0
DWIDTH 11 0
BBX 9 13 1 0
BITMAP
8080
8080
8080
8880
9480
9480
9480
8880
8880
9480
5480
6300
4100
ENDCHAR
STARTCHAR x
ENCODING 120
SWIDTH 244 0
DWIDTH 7 0
BBX 5 13 1 0
BITMAP
88
88
50
50
50
20
20
60
50
50
88
88
88
ENDCHAR
STARTCHAR y
ENCODING 121
SWIDTH 285 0
DWIDTH 8 0
BBX 7 18 0 -5
BITMAP
82
42
42
42
42
24
24
24
24
18
18
18
10
10
10
10
20
C0
ENDCHAR
STARTCHAR z
ENCODING 122
SWIDTH 233 0
DWIDTH 7 0
BBX 5 13 1 0
BITMAP
F8
08
10
10
20
20
20
40
40
40
80
80
F8
ENDCHAR
STARTCHAR braceleft
ENCODING 123
SWIDTH 306 0
DWIDTH 9 0
BBX 8 23 1 -2
BITMAP
07
08
08
08
08
08
08
08
08
08
F0
90
F0
08
08
08
08
08
08
08
08
08
07
ENDCHAR
STARTCHAR bar
ENCODING 124
SWIDTH 141 0
DWIDTH 4 0
BBX 1 22 1 -2
BITMAP
80
80
80
80
80
80
80
80
80
80
80
80
80
80
80
80
80
80
80
80
80
80
ENDCHAR
STARTCHAR braceright
ENCODING 125
SWIDTH 306 0
DWIDTH 9 0
BBX 8 23 0 -2
BITMAP
E0
10
10
10
10
10
10
10
10
10
16
09
16
10
10
10
10
10
10
10
10
10
E0
ENDCHAR
STARTCHAR asciitilde
ENCODING 126
SWIDTH 433 0
DWIDTH 12 0
BBX 10 2 1 6
BITMAP
7840
8780
ENDCHAR
STARTCHAR uni00A0
ENCODING 160
SWIDTH 240 0
DWIDTH 7 0
BBX 1 1 0 0
BITMAP
00
ENDCHAR
STARTCHAR exclamdown
ENCODING 161
SWIDTH 141 0
DWIDTH 4 0
BBX 1 19 1 -3
BITMAP
80
80
80
00
00
80
80
80
80
80
80
80
80
80
80
80
80
80
80
ENDCHAR
STARTCHAR cent
ENCODING 162
SWIDTH 275 0
DWIDTH 8 0
BBX 6 18 1 -2
BITMAP
10
10
10
38
54
54
90
90
90
90
90
90
94
54
38
10
10
10
ENDCHAR
STARTCHAR sterling
ENCODING 163
SWIDTH 331 0
DWIDTH 9 0
BBX 9 19 0 0
BITMAP
3E00
4100
4100
4000
4000
4000
4000
4000
2000
1000
7E00
1000
1000
1000
1000
1000
2000
4000
FF80
ENDCHAR
STARTCHAR currency
ENCODING 164
SWIDTH 506 0
DWIDTH 14 0
BBX 12 11 1 3
BITMAP
8010
4FA0
3040
2040
4020
4020
4020
2040
30C0
4F20
8010
ENDCHAR
STARTCHAR yen
ENCODING 165
SWIDTH 370 0
DWIDTH 10 0
BBX 10 19 0 0
BITMAP
8040
4040
4080
4080
2100
2100
1100
1200
0A00
0C00
0400
0400
3F80
0400
3F80
0400
0400
0400
0400
ENDCHAR
STARTCHAR brokenbar
ENCODING 166
SWIDTH 141 0
DWIDTH 4 0
BBX 1 22 1 -2
BITMAP
80
80
80
80
80
80
80
80
80
00
00
00
80
80
80
80
80
80
80
80
80
80
ENDCHAR
STARTCHAR section
ENCODING 167
SWIDTH 303 0
DWIDTH 8 0
BBX 7 23 1 -3
BITMAP
78
84
82
80
80
80
40
30
48
84
84
82
84
4C
38
10
0C
04
02
02
82
84
38
ENDCHAR
STARTCHAR dieresis
ENCODING 168
SWIDTH 241 0
DWIDTH 7 0
BBX 3 3 2 14
BITMAP
A0
A0
A0
ENDCHAR
STARTCHAR copyright
ENCODING 169
SWIDTH 772 0
DWIDTH 22 0
BBX 20 19 1 0
BITMAP
01F800
060600
180100
206080
409040
410020
810020
810020
810010
820010
810010
810020
810020
410020
408040
207080
100100
0E0600
01F800
ENDCHAR
STARTCHAR ordfeminine
ENCODING 170
SWIDTH 231 0
DWIDTH 6 0
BBX 5 8 1 11
BITMAP
60
90
10
30
50
90
90
F8
ENDCHAR
STARTCHAR guillemotleft
ENCODING 171
SWIDTH 403 0
DWIDTH 11 0
BBX 9 11 1 3
BITMAP
0880
0880
1100
2200
4400
8800
4400
2400
2200
1100
0880
ENDCHAR
STARTCHAR logicalnot
ENCODING 172
SWIDTH 557 0
DWIDTH 16 0
BBX 13 5 1 4
BITMAP
FFF8
0008
0008
0008
0008
ENDCHAR
STARTCHAR uni00AD
ENCODING 173
SWIDTH 286 0
DWIDTH 8 0
BBX 6 1 1 7
BITMAP
FC
ENDCHAR
STARTCHAR registered
ENCODING 174
SWIDTH 772 0
DWIDTH 22 0
BBX 20 19 1 0
BITMAP
01F800
060600
180100
20E080
411040
411020
811020
811020
811010
80E010
811010
811020
811020
410820
410840
200080
100100
0E0600
01F800
ENDCHAR
STARTCHAR macron
ENCODING 175
SWIDTH 266 0
DWIDTH 7 0
BBX 4 1 2 16
BITMAP
F0
ENDCHAR
STARTCHAR degree
ENCODING 176
SWIDTH 350 0
DWIDTH 10 0
BBX 7 7 1 12
BITMAP
1C
42
82
82
82
42
1C
ENDCHAR
STARTCHAR plusminus
ENCODING 177
SWIDTH 577 0
DWIDTH 16 0
BBX 14 13 1 0
BITMAP
0100
0100
0100
0100
0100
FFFC
0100
0100
0100
0100
0100
0000
FFFC
ENDCHAR
STARTCHAR uni00B2
ENCODING 178
SWIDTH 207 0
DWIDTH 6 0
BBX 4 8 1 11
BITMAP
60
90
10
20
20
40
80
F0
ENDCHAR
STARTCHAR uni00B3
ENCODING 179
SWIDTH 214 0
DWIDTH 6 0
BBX 4 8 1 11
BITMAP
60
90
10
60
10
10
10
E0
ENDCHAR
STARTCHAR acute
ENCODING 180
SWIDTH 201 0
DWIDTH 6 0
BBX 2 3 2 15
BITMAP
40
80
80
ENDCHAR
STARTCHAR uni00B5
ENCODING 181
SWIDTH 335 0
DWIDTH 9 0
BBX 7 18 2 -5
BITMAP
88
88
88
88
88
88
88
88
88
88
88
88
F6
80
80
80
80
80
ENDCHAR
STARTCHAR paragraph
ENCODING 182
SWIDTH 471 0
DWIDTH 13 0
BBX 10 19 2 0
BITMAP
3E40
7E40
FE40
FE40
FE40
FE40
FE40
FE40
7E40
1E40
0240
0240
0240
0240
0240
0240
0240
0240
0240
ENDCHAR
STARTCHAR periodcentered
ENCODING 183
SWIDTH 181 0
DWIDTH 5 0
BBX 1 3 2 7
BITMAP
80
80
80
ENDCHAR
STARTCHAR cedilla
ENCODING 184
SWIDTH 232 0
DWIDTH 7 0
BBX 3 5 2 -5
BITMAP
40
C0
20
20
C0
ENDCHAR
STARTCHAR uni00B9
ENCODING 185
SWIDTH 176 0
DWIDTH 5 0
BBX 4 8 1 11
BITMAP
C0
40
40
40
40
40
40
F0
ENDCHAR
STARTCHAR ordmasculine
ENCODING 186
SWIDTH 201 0
DWIDTH 6 0
BBX 4 8 1 11
BITMAP
60
90
90
90
90
90
90
60
ENDCHAR
STARTCHAR guillemotright
ENCODING 187
SWIDTH 403 0
DWIDTH 11 0
BBX 9 11 1 2
BITMAP
8800
4400
2200
1100
0880
0880
1100
2200
2400
4400
8800
ENDCHAR
STARTCHAR onequarter
ENCODING 188
SWIDTH 527 0
DWIDTH 15 0
BBX 12 19 1 0
BITMAP
E010
2020
2020
2040
2040
2080
2080
F100
0100
0200
0200
0420
0440
0860
08A0
10A0
11F0
2020
2020
ENDCHAR
STARTCHAR onehalf
ENCODING 189
SWIDTH 540 0
DWIDTH 15 0
BBX 13 19 1 0
BITMAP
E010
2020
2020
2040
2040
2080
2080
F100
0100
0200
0200
0470
0448
0808
0810
1020
1020
2040
2078
ENDCHAR
STARTCHAR threequarters
ENCODING 190
SWIDTH 517 0
DWIDTH 14 0
BBX 13 19 1 0
BITMAP
6010
9020
1020
6040
1040
1080
1080
E100
0100
0200
0200
0420
0440
0860
08A0
10A0
10F8
2020
2020
ENDCHAR
STARTCHAR questiondown
ENCODING 191
SWIDTH 300 0
DWIDTH 8 0
BBX 6 19 2 -3
BITMAP
20
20
20
00
00
20
10
10
10
20
20
40
80
80
80
80
84
88
70
ENDCHAR
STARTCHAR Agrave
ENCODING 192
SWIDTH 414 0
DWIDTH 12 0
BBX 11 23 0 0
BITMAP
0800
0400
0400
0000
0400
0400
0600
0A00
0A00
0900
0900
1100
1080
1080
2080
3F80
2040
2040
4040
4040
4020
4020
8020
ENDCHAR
STARTCHAR Aacute
ENCODING 193
SWIDTH 414 0
DWIDTH 12 0
BBX 11 23 0 0
BITMAP
0100
0200
0200
0000
0400
0400
0600
0A00
0A00
0900
0900
1100
1080
1080
2080
3F80
2040
2040
4040
4040
4020
4020
8020
ENDCHAR
STARTCHAR Acircumflex
ENCODING 194
SWIDTH 414 0
DWIDTH 12 0
BBX 11 23 0 0
BITMAP
0600
0A00
0900
0000
0400
0400
0600
0A00
0A00
0900
0900
1100
1080
1080
2080
3F80
2040
2040
4040
4040
4020
4020
8020
ENDCHAR
STARTCHAR Atilde
ENCODING 195
SWIDTH 414 0
DWIDTH 12 0
BBX 11 22 0 0
BITMAP
0D00
1300
0000
0400
0400
0600
0A00
0A00
0900
0900
1100
1080
1080
2080
3F80
2040
2040
4040
4040
4020
4020
8020
ENDCHAR
STARTCHAR Adieresis
ENCODING 196
SWIDTH 414 0
DWIDTH 12 0
BBX 11 23 0 0
BITMAP
0900
0900
0900
0000
0400
0400
0600
0A00
0A00
0900
0900
1100
1080
1080
2080
3F80
2040
2040
4040
4040
4020
4020
8020
ENDCHAR
STARTCHAR Aring
ENCODING 197
SWIDTH 414 0
DWIDTH 12 0
BBX 11 23 0 0
BITMAP
0600
0900
0600
0000
0400
0400
0600
0A00
0A00
0900
0900
1100
1080
1080
2080
3F80
2040
2040
4040
4040
4020
4020
8020
ENDCHAR
STARTCHAR AE
ENCODING 198
SWIDTH 545 0
DWIDTH 15 0
BBX 14 19 0 0
BITMAP
00FC
0080
0180
0180
0280
0280
0480
0480
04FC
0880
0880
1F80
1080
2080
2080
2080
4080
4080
80FC
ENDCHAR
STARTCHAR Ccedilla
ENCODING 199
SWIDTH 366 0
DWIDTH 10 0
BBX 8 24 1 -5
BITMAP
1F
20
40
40
80
80
80
80
80
80
80
80
80
80
80
40
40
21
1E
04
0C
02
02
0C
ENDCHAR
STARTCHAR Egrave
ENCODING 200
SWIDTH 309 0
DWIDTH 9 0
BBX 6 23 2 0
BITMAP
40
40
20
00
FC
80
80
80
80
80
80
80
F8
80
80
80
80
80
80
80
80
80
FC
ENDCHAR
STARTCHAR Eacute
ENCODING 201
SWIDTH 309 0
DWIDTH 9 0
BBX 6 23 2 0
BITMAP
08
10
20
00
FC
80
80
80
80
80
80
80
F8
80
80
80
80
80
80
80
80
80
FC
ENDCHAR
STARTCHAR Ecircumflex
ENCODING 202
SWIDTH 309 0
DWIDTH 9 0
BBX 6 23 2 0
BITMAP
20
50
88
00
FC
80
80
80
80
80
80
80
F8
80
80
80
80
80
80
80
80
80
FC
ENDCHAR
STARTCHAR Edieresis
ENCODING 203
SWIDTH 309 0
DWIDTH 9 0
BBX 6 23 2 0
BITMAP
50
50
50
00
FC
80
80
80
80
80
80
80
F8
80
80
80
80
80
80
80
80
80
FC
ENDCHAR
STARTCHAR Igrave
ENCODING 204
SWIDTH 141 0
DWIDTH 4 0
BBX 2 23 0 0
BITMAP
80
40
40
00
40
40
40
40
40
40
40
40
40
40
40
40
40
40
40
40
40
40
40
ENDCHAR
STARTCHAR Iacute
ENCODING 205
SWIDTH 141 0
DWIDTH 4 0
BBX 2 23 2 0
BITMAP
40
80
80
00
80
80
80
80
80
80
80
80
80
80
80
80
80
80
80
80
80
80
80
ENDCHAR
STARTCHAR Icircumflex
ENCODING 206
SWIDTH 141 0
DWIDTH 4 0
BBX 4 23 0 0
BITMAP
60
90
90
00
40
40
40
40
40
40
40
40
40
40
40
40
40
40
40
40
40
40
40
ENDCHAR
STARTCHAR Idieresis
ENCODING 207
SWIDTH 141 0
DWIDTH 4 0
BBX 4 23 0 0
BITMAP
90
90
90
00
40
40
40
40
40
40
40
40
40
40
40
40
40
40
40
40
40
40
40
ENDCHAR
STARTCHAR Eth
ENCODING 208
SWIDTH 396 0
DWIDTH 11 0
BBX 10 19 0 0
BITMAP
3E00
4100
4080
4080
4040
4040
4040
4040
4040
4040
F840
4040
4040
4040
4040
4080
4080
4100
3E00
ENDCHAR
STARTCHAR Ntilde
ENCODING 209
SWIDTH 422 0
DWIDTH 12 0
BBX 8 22 2 0
BITMAP
32
4C
00
81
81
81
C1
C1
A1
A1
91
91
91
89
89
85
85
83
83
83
81
81
ENDCHAR
STARTCHAR Ograve
ENCODING 210
SWIDTH 446 0
DWIDTH 12 0
BBX 10 23 1 0
BITMAP
1000
0800
0400
0000
1E00
2100
4080
4040
8040
8040
8040
8040
8040
8040
8040
8040
8040
8040
8040
4040
4080
2100
1E00
ENDCHAR
STARTCHAR Oacute
ENCODING 211
SWIDTH 446 0
DWIDTH 12 0
BBX 10 23 1 0
BITMAP
0200
0200
0400
0000
1E00
2100
4080
4040
8040
8040
8040
8040
8040
8040
8040
8040
8040
8040
8040
4040
4080
2100
1E00
ENDCHAR
STARTCHAR Ocircumflex
ENCODING 212
SWIDTH 446 0
DWIDTH 12 0
BBX 10 23 1 0
BITMAP
0400
0A00
1200
0000
1E00
2100
4080
4040
8040
8040
8040
8040
8040
8040
8040
8040
8040
8040
8040
4040
4080
2100
1E00
ENDCHAR
STARTCHAR Otilde
ENCODING 213
SWIDTH 446 0
DWIDTH 12 0
BBX 10 22 1 0
BITMAP
1900
1600
0000
1E00
2100
4080
4040
8040
8040
8040
8040
8040
8040
8040
8040
8040
8040
8040
4040
4080
2100
1E00
ENDCHAR
STARTCHAR Odieresis
ENCODING 214
SWIDTH 446 0
DWIDTH 12 0
BBX 10 23 1 0
BITMAP
1200
1200
1200
0000
1E00
2100
4080
4040
8040
8040
8040
8040
8040
8040
8040
8040
8040
8040
8040
4040
4080
2100
1E00
ENDCHAR
STARTCHAR multiply
ENCODING 215
SWIDTH 445 0
DWIDTH 12 0
BBX 10 10 1 2
BITMAP
8040
4080
2100
1200
0C00
0C00
1200
2100
4080
8040
ENDCHAR
STARTCHAR Oslash
ENCODING 216
SWIDTH 446 0
DWIDTH 12 0
BBX 10 19 1 0
BITMAP
1E40
2180
4080
4080
8140
8140
8240
8240
8440
8440
8840
8840
9040
9040
A040
6040
4080
6100
5E00
ENDCHAR
STARTCHAR Ugrave
ENCODING 217
SWIDTH 412 0
DWIDTH 12 0
BBX 9 23 1 0
BITMAP
1000
0800
0800
0000
8080
8080
8080
8080
8080
8080
8080
8080
8080
8080
8080
8080
8080
8080
8080
8080
4080
4100
3E00
ENDCHAR
STARTCHAR Uacute
ENCODING 218
SWIDTH 412 0
DWIDTH 12 0
BBX 9 23 1 0
BITMAP
0200
0400
0400
0000
8080
8080
8080
8080
8080
8080
8080
8080
8080
8080
8080
8080
8080
8080
8080
8080
4080
4100
3E00
ENDCHAR
STARTCHAR Ucircumflex
ENCODING 219
SWIDTH 412 0
DWIDTH 12 0
BBX 9 23 1 0
BITMAP
0800
1400
1200
0000
8080
8080
8080
8080
8080
8080
8080
8080
8080
8080
8080
8080
8080
8080
8080
8080
4080
4100
3E00
ENDCHAR
STARTCHAR Udieresis
ENCODING 220
SWIDTH 412 0
DWIDTH 12 0
BBX 9 23 1 0
BITMAP
1200
1200
1200
0000
8080
8080
8080
8080
8080
8080
8080
8080
8080
8080
8080
8080
8080
8080
8080
8080
4080
4100
3E00
ENDCHAR
STARTCHAR Yacute
ENCODING 221
SWIDTH 370 0
DWIDTH 10 0
BBX 10 23 0 0
BITMAP
0200
0200
0400
0000
8040
4040
4080
2080
2100
2100
1200
1200
0A00
0C00
0400
0400
0400
0400
0400
0400
0400
0400
0400
ENDCHAR
STARTCHAR Thorn
ENCODING 222
SWIDTH 341 0
DWIDTH 10 0
BBX 7 19 2 0
BITMAP
80
80
80
80
F8
84
84
82
82
82
82
84
88
F0
80
80
80
80
80
ENDCHAR
STARTCHAR germandbls
ENCODING 223
SWIDTH 327 0
DWIDTH 9 0
BBX 6 19 2 0
BITMAP
70
88
88
88
88
88
88
B8
C8
B8
84
84
84
84
84
84
88
88
F0
ENDCHAR
STARTCHAR agrave
ENCODING 224
SWIDTH 315 0
DWIDTH 9 0
BBX 7 18 1 0
BITMAP
20
20
10
00
00
38
C4
04
04
04
04
3C
44
84
84
84
8C
76
ENDCHAR
STARTCHAR aacute
ENCODING 225
SWIDTH 315 0
DWIDTH 9 0
BBX 7 18 1 0
BITMAP
08
10
10
00
00
38
C4
04
04
04
04
3C
44
84
84
84
8C
76
ENDCHAR
STARTCHAR acircumflex
ENCODING 226
SWIDTH 315 0
DWIDTH 9 0
BBX 7 18 1 0
BITMAP
10
28
4C
00
00
38
C4
04
04
04
04
3C
44
84
84
84
8C
76
ENDCHAR
STARTCHAR atilde
ENCODING 227
SWIDTH 315 0
DWIDTH 9 0
BBX 7 17 1 0
BITMAP
64
58
00
00
38
C4
04
04
04
04
3C
44
84
84
84
8C
76
ENDCHAR
STARTCHAR adieresis
ENCODING 228
SWIDTH 315 0
DWIDTH 9 0
BBX 7 17 1 0
BITMAP
48
48
48
00
38
C4
04
04
04
04
3C
44
84
84
84
8C
76
ENDCHAR
STARTCHAR aring
ENCODING 229
SWIDTH 315 0
DWIDTH 9 0
BBX 7 18 1 0
BITMAP
30
48
28
30
00
38
C4
04
04
04
04
3C
44
84
84
84
8C
76
ENDCHAR
STARTCHAR ae
ENCODING 230
SWIDTH 450 0
DWIDTH 13 0
BBX 11 13 1 0
BITMAP
7980
8640
0420
0420
0420
1FE0
6400
8400
8400
8400
8420
8A40
7180
ENDCHAR
STARTCHAR ccedilla
ENCODING 231
SWIDTH 275 0
DWIDTH 8 0
BBX 6 18 1 -5
BITMAP
38
44
44
80
80
80
80
80
80
80
44
44
38
10
30
08
08
30
ENDCHAR
STARTCHAR egrave
ENCODING 232
SWIDTH 285 0
DWIDTH 8 0
BBX 6 18 1 0
BITMAP
20
20
10
00
00
38
48
44
84
84
FC
80
80
80
80
44
44
38
ENDCHAR
STARTCHAR eacute
ENCODING 233
SWIDTH 285 0
DWIDTH 8 0
BBX 6 18 1 0
BITMAP
08
10
10
00
00
38
48
44
84
84
FC
80
80
80
80
44
44
38
ENDCHAR
STARTCHAR ecircumflex
ENCODING 234
SWIDTH 285 0
DWIDTH 8 0
BBX 6 18 1 0
BITMAP
10
28
48
04
00
38
48
44
84
84
FC
80
80
80
80
44
44
38
ENDCHAR
STARTCHAR edieresis
ENCODING 235
SWIDTH 285 0
DWIDTH 8 0
BBX 6 17 1 0
BITMAP
48
48
48
00
38
48
44
84
84
FC
80
80
80
80
44
44
38
ENDCHAR
STARTCHAR igrave
ENCODING 236
SWIDTH 141 0
DWIDTH 4 0
BBX 3 18 0 0
BITMAP
80
40
20
00
00
40
40
40
40
40
40
40
40
40
40
40
40
40
ENDCHAR
STARTCHAR iacute
ENCODING 237
SWIDTH 141 0
DWIDTH 4 0
BBX 3 18 1 0
BITMAP
20
40
80
00
00
80
80
80
80
80
80
80
80
80
80
80
80
80
ENDCHAR
STARTCHAR icircumflex
ENCODING 238
SWIDTH 141 0
DWIDTH 4 0
BBX 4 18 0 0
BITMAP
40
60
90
00
00
40
40
40
40
40
40
40
40
40
40
40
40
40
ENDCHAR
STARTCHAR idieresis
ENCODING 239
SWIDTH 141 0
DWIDTH 4 0
BBX 4 17 0 0
BITMAP
90
90
90
00
40
40
40
40
40
40
40
40
40
40
40
40
40
ENDCHAR
STARTCHAR eth
ENCODING 240
SWIDTH 319 0
DWIDTH 9 0
BBX 7 19 1 0
BITMAP
40
20
14
38
48
04
3C
44
42
82
82
82
82
82
82
82
44
44
38
ENDCHAR
STARTCHAR ntilde
ENCODING 241
SWIDTH 307 0
DWIDTH 9 0
BBX 5 17 2 0
BITMAP
C8
B0
00
00
F0
88
88
88
88
88
88
88
88
88
88
88
88
ENDCHAR
STARTCHAR ograve
ENCODING 242
SWIDTH 309 0
DWIDTH 9 0
BBX 7 18 1 0
BITMAP
20
20
10
00
00
38
44
44
84
82
82
82
82
82
84
44
44
38
ENDCHAR
STARTCHAR oacute
ENCODING 243
SWIDTH 309 0
DWIDTH 9 0
BBX 7 18 1 0
BITMAP
08
10
10
00
00
38
44
44
84
82
82
82
82
82
84
44
44
38
ENDCHAR
STARTCHAR ocircumflex
ENCODING 244
SWIDTH 309 0
DWIDTH 9 0
BBX 7 18 1 0
BITMAP
10
28
4C
00
00
38
44
44
84
82
82
82
82
82
84
44
44
38
ENDCHAR
STARTCHAR otilde
ENCODING 245
SWIDTH 309 0
DWIDTH 9 0
BBX 7 17 1 0
BITMAP
64
58
00
00
38
44
44
84
82
82
82
82
82
84
44
44
38
ENDCHAR
STARTCHAR odieresis
ENCODING 246
SWIDTH 309 0
DWIDTH 9 0
BBX 7 17 1 0
BITMAP
48
48
48
00
38
44
44
84
82
82
82
82
82
84
44
44
38
ENDCHAR
STARTCHAR divide
ENCODING 247
SWIDTH 577 0
DWIDTH 16 0
BBX 14 13 1 0
BITMAP
0100
0100
0100
0000
0000
0000
FFFC
0000
0000
0000
0100
0100
0100
ENDCHAR
STARTCHAR oslash
ENCODING 248
SWIDTH 309 0
DWIDTH 9 0
BBX 7 13 1 0
BITMAP
3C
44
44
8C
8A
92
92
A2
A2
A4
44
44
B8
ENDCHAR
STARTCHAR ugrave
ENCODING 249
SWIDTH 307 0
DWIDTH 9 0
BBX 6 18 1 0
BITMAP
20
20
10
00
00
84
84
84
84
84
84
84
84
84
84
84
84
7C
ENDCHAR
STARTCHAR uacute
ENCODING 250
SWIDTH 307 0
DWIDTH 9 0
BBX 6 18 1 0
BITMAP
08
10
10
00
00
84
84
84
84
84
84
84
84
84
84
84
84
7C
ENDCHAR
STARTCHAR ucircumflex
ENCODING 251
SWIDTH 307 0
DWIDTH 9 0
BBX 6 18 1 0
BITMAP
10
28
4C
00
00
84
84
84
84
84
84
84
84
84
84
84
84
7C
ENDCHAR
STARTCHAR udieresis
ENCODING 252
SWIDTH 307 0
DWIDTH 9 0
BBX 6 17 1 0
BITMAP
48
48
48
00
84
84
84
84
84
84
84
84
84
84
84
84
7C
ENDCHAR
STARTCHAR yacute
ENCODING 253
SWIDTH 285 0
DWIDTH 8 0
BBX 7 23 0 -5
BITMAP
04
08
10
00
00
82
42
42
42
42
24
24
24
24
18
18
18
10
10
10
10
20
C0
ENDCHAR
STARTCHAR thorn
ENCODING 254
SWIDTH 299 0
DWIDTH 8 0
BBX 7 24 0 -5
BITMAP
40
40
40
40
40
40
3C
C2
42
42
42
42
42
42
42
42
42
22
5C
40
40
40
40
40
ENDCHAR
STARTCHAR ydieresis
ENCODING 255
SWIDTH 285 0
DWIDTH 8 0
BBX 7 22 0 -5
BITMAP
24
24
24
00
82
42
42
42
42
24
24
24
24
18
18
18
10
10
10
10
20
C0
ENDCHAR
STARTCHAR dotlessi
ENCODING 305
SWIDTH 141 0
DWIDTH 4 0
BBX 1 13 1 0
BITMAP
80
80
80
80
80
80
80
80
80
80
80
80
80
ENDCHAR
STARTCHAR OE
ENCODING 338
SWIDTH 505 0
DWIDTH 14 0
BBX 12 19 1 0
BITMAP
1FF0
2200
4200
4200
8200
8200
8200
8200
83F0
8200
8200
8200
8200
8200
8200
4200
4200
2200
1FF0
ENDCHAR
STARTCHAR oe
ENCODING 339
SWIDTH 492 0
DWIDTH 14 0
BBX 12 13 1 0
BITMAP
38C0
4520
4610
8210
8210
83F0
8200
8200
8200
8200
4610
4510
38E0
ENDCHAR
STARTCHAR Wcircumflex
ENCODING 372
SWIDTH 534 0
DWIDTH 15 0
BBX 13 23 1 0
BITMAP
0200
0500
0880
0000
8008
8008
8008
8008
8008
8008
8210
4510
4510
4510
4510
4210
4210
4510
4510
4890
5050
6050
4020
ENDCHAR
STARTCHAR wcircumflex
ENCODING 373
SWIDTH 396 0
DWIDTH 11 0
BBX 9 18 1 0
BITMAP
0800
1400
2200
0000
0000
8080
8080
8080
8880
9480
9480
9480
8880
8880
9480
5480
6300
4100
ENDCHAR
STARTCHAR Ycircumflex
ENCODING 374
SWIDTH 370 0
DWIDTH 10 0
BBX 10 23 0 0
BITMAP
0C00
0A00
1200
0000
8040
4040
4080
2080
2100
2100
1200
1200
0A00
0C00
0400
0400
0400
0400
0400
0400
0400
0400
0400
ENDCHAR
STARTCHAR ycircumflex
ENCODING 375
SWIDTH 285 0
DWIDTH 8 0
BBX 7 23 0 -5
BITMAP
18
18
24
00
00
82
42
42
42
42
24
24
24
24
18
18
18
10
10
10
10
20
C0
ENDCHAR
STARTCHAR Ydieresis
ENCODING 376
SWIDTH 370 0
DWIDTH 10 0
BBX 10 23 0 0
BITMAP
1200
1200
1200
0000
8040
4040
4080
2080
2100
2100
1200
1200
0A00
0C00
0400
0400
0400
0400
0400
0400
0400
0400
0400
ENDCHAR
STARTCHAR uni0237
ENCODING 567
SWIDTH 141 0
DWIDTH 4 0
BBX 4 18 -2 -5
BITMAP
10
10
10
10
10
10
10
10
10
10
10
10
10
10
10
10
10
E0
ENDCHAR
STARTCHAR circumflex
ENCODING 710
SWIDTH 280 0
DWIDTH 8 0
BBX 4 3 2 15
BITMAP
40
60
90
ENDCHAR
STARTCHAR ring
ENCODING 730
SWIDTH 238 0
DWIDTH 7 0
BBX 3 4 2 14
BITMAP
C0
A0
A0
C0
ENDCHAR
STARTCHAR tilde
ENCODING 732
SWIDTH 301 0
DWIDTH 8 0
BBX 5 2 2 15
BITMAP
C8
B0
ENDCHAR
STARTCHAR gravecomb
ENCODING 768
SWIDTH 0 0
DWIDTH 0 0
BBX 2 3 2 15
BITMAP
80
80
40
ENDCHAR
STARTCHAR acutecomb
ENCODING 769
SWIDTH 0 0
DWIDTH 0 0
BBX 2 3 2 15
BITMAP
40
80
80
ENDCHAR
STARTCHAR uni0302
ENCODING 770
SWIDTH 0 0
DWIDTH 0 0
BBX 4 3 2 15
BITMAP
40
60
90
ENDCHAR
STARTCHAR tildecomb
ENCODING 771
SWIDTH 0 0
DWIDTH 0 0
BBX 5 2 2 15
BITMAP
C8
B0
ENDCHAR
STARTCHAR uni0307
ENCODING 775
SWIDTH 0 0
DWIDTH 0 0
BBX 1 3 1 14
BITMAP
80
80
80
ENDCHAR
STARTCHAR uni0308
ENCODING 776
SWIDTH 0 0
DWIDTH 0 0
BBX 3 3 2 14
BITMAP
A0
A0
A0
ENDCHAR
STARTCHAR uni030A
ENCODING 778
SWIDTH 0 0
DWIDTH 0 0
BBX 3 4 2 14
BITMAP
C0
A0
A0
C0
ENDCHAR
STARTCHAR uni0327
ENCODING 807
SWIDTH 0 0
DWIDTH 0 0
BBX 3 5 2 -5
BITMAP
40
C0
20
20
C0
ENDCHAR
STARTCHAR Wgrave
ENCODING 7808
SWIDTH 534 0
DWIDTH 15 0
BBX 13 23 1 0
BITMAP
0400
0400
0200
0000
8008
8008
8008
8008
8008
8008
8210
4510
4510
4510
4510
4210
4210
4510
4510
4890
5050
6050
4020
ENDCHAR
STARTCHAR wgrave
ENCODING 7809
SWIDTH 396 0
DWIDTH 11 0
BBX 9 18 1 0
BITMAP
1000
0800
0800
0000
0000
8080
8080
8080
8880
9480
9480
9480
8880
8880
9480
5480
6300
4100
ENDCHAR
STARTCHAR Wacute
ENCODING 7810
SWIDTH 534 0
DWIDTH 15 0
BBX 13 23 1 0
BITMAP
0100
0100
0200
0000
8008
8008
8008
8008
8008
8008
8210
4510
4510
4510
4510
4210
4210
4510
4510
4890
5050
6050
4020
ENDCHAR
STARTCHAR wacute
ENCODING 7811
SWIDTH 396 0
DWIDTH 11 0
BBX 9 18 1 0
BITMAP
0400
0400
0800
0000
0000
8080
8080
8080
8880
9480
9480
9480
8880
8880
9480
5480
6300
4100
ENDCHAR
STARTCHAR Wdieresis
ENCODING 7812
SWIDTH 534 0
DWIDTH 15 0
BBX 13 23 1 0
BITMAP
0500
0500
0500
0000
8008
8008
8008
8008
8008
8008
8210
4510
4510
4510
4510
4210
4210
4510
4510
4890
5050
6050
4020
ENDCHAR
STARTCHAR wdieresis
ENCODING 7813
SWIDTH 396 0
DWIDTH 11 0
BBX 9 17 1 0
BITMAP
1400
1400
1400
0000
8080
8080
8080
8880
9480
9480
9480
8880
8880
9480
5480
6300
4100
ENDCHAR
STARTCHAR uni1E9E
ENCODING 7838
SWIDTH 375 0
DWIDTH 11 0
BBX 7 19 2 0
BITMAP
78
84
84
82
82
84
84
B4
CC
B4
82
82
82
82
82
82
82
84
F8
ENDCHAR
STARTCHAR Ygrave
ENCODING 7922
SWIDTH 370 0
DWIDTH 10 0
BBX 10 23 0 0
BITMAP
1000
0800
0400
0000
8040
4040
4080
2080
2100
2100
1200
1200
0A00
0C00
0400
0400
0400
0400
0400
0400
0400
0400
0400
ENDCHAR
STARTCHAR ygrave
ENCODING 7923
SWIDTH 285 0
DWIDTH 8 0
BBX 7 23 0 -5
BITMAP
20
10
08
00
00
82
42
42
42
42
24
24
24
24
18
18
18
10
10
10
10
20
C0
ENDCHAR
STARTCHAR endash
ENCODING 8211
SWIDTH 425 0
DWIDTH 12 0
BBX 10 1 1 6
BITMAP
FFC0
ENDCHAR
STARTCHAR emdash
ENCODING 8212
SWIDTH 770 0
DWIDTH 22 0
BBX 19 1 1 6
BITMAP
FFFFE0
ENDCHAR
STARTCHAR quoteleft
ENCODING 8216
SWIDTH 145 0
DWIDTH 4 0
BBX 2 5 1 14
BITMAP
40
80
80
80
80
ENDCHAR
STARTCHAR quoteright
ENCODING 8217
SWIDTH 145 0
DWIDTH 4 0
BBX 2 5 1 14
BITMAP
40
40
40
40
80
ENDCHAR
STARTCHAR quotesinglbase
ENCODING 8218
SWIDTH 145 0
DWIDTH 4 0
BBX 1 5 1 -2
BITMAP
80
80
80
80
80
ENDCHAR
STARTCHAR quotedblleft
ENCODING 8220
SWIDTH 219 0
DWIDTH 6 0
BBX 4 5 1 14
BITMAP
50
A0
A0
A0
A0
ENDCHAR
STARTCHAR quotedblright
ENCODING 8221
SWIDTH 219 0
DWIDTH 6 0
BBX 4 5 1 14
BITMAP
50
50
50
50
A0
ENDCHAR
STARTCHAR quotedblbase
ENCODING 8222
SWIDTH 219 0
DWIDTH 6 0
BBX 3 5 1 -2
BITMAP
60
60
60
60
A0
ENDCHAR
STARTCHAR bullet
ENCODING 8226
SWIDTH 355 0
DWIDTH 10 0
BBX 6 6 2 7
BITMAP
78
FC
FC
FC
FC
78
ENDCHAR
STARTCHAR ellipsis
ENCODING 8230
SWIDTH 651 0
DWIDTH 18 0
BBX 14 3 2 0
BITMAP
8104
8104
8104
ENDCHAR
STARTCHAR guilsinglleft
ENCODING 8249
SWIDTH 263 0
DWIDTH 7 0
BBX 5 11 1 3
BITMAP
08
08
10
20
40
80
40
20
20
10
08
ENDCHAR
STARTCHAR guilsinglright
ENCODING 8250
SWIDTH 263 0
DWIDTH 7 0
BBX 5 11 1 2
BITMAP
80
40
20
10
08
08
10
20
20
40
80
ENDCHAR
STARTCHAR fraction
ENCODING 8260
SWIDTH 152 0
DWIDTH 4 0
BBX 10 19 -3 0
BITMAP
0040
0040
0080
0080
0100
0100
0200
0200
0400
0400
0800
0800
1000
1000
2000
2000
4000
4000
8000
ENDCHAR
STARTCHAR uni2074
ENCODING 8308
SWIDTH 247 0
DWIDTH 7 0
BBX 5 8 1 11
BITMAP
20
20
50
50
90
F8
10
10
ENDCHAR
STARTCHAR Euro
ENCODING 8364
SWIDTH 391 0
DWIDTH 11 0
BBX 10 19 0 0
BITMAP
0780
0840
1000
1000
2000
2000
2000
2000
FC00
2000
FC00
2000
2000
2000
2000
1000
1000
0840
0780
ENDCHAR
STARTCHAR trademark
ENCODING 8482
SWIDTH 506 0
DWIDTH 14 0
BBX 12 10 1 10
BITMAP
F210
2370
2290
22D0
22D0
2290
22D0
22D0
2210
2210
ENDCHAR
STARTCHAR minus
ENCODING 8722
SWIDTH 557 0
DWIDTH 16 0
BBX 13 1 1 8
BITMAP
FFF8
ENDCHAR
STARTCHAR uni2215
ENCODING 8725
SWIDTH 259 0
DWIDTH 7 0
BBX 7 20 0 0
BITMAP
02
02
02
04
04
04
08
08
08
10
10
10
20
20
20
40
40
40
80
80
ENDCHAR
STARTCHAR .notdef
ENCODING -1
SWIDTH 500 0
DWIDTH 14 0
BBX 12 25 1 -5
BITMAP
FFF0
C030
C030
C030
C030
C030
C030
C030
C030
C030
C030
C030
C030
C030
C030
C030
C030
C030
C030
C030
C030
C030
C030
C030
FFF0
ENDCHAR
STARTCHAR NULL
ENCODING -1
SWIDTH 600 0
DWIDTH 17 0
BBX 1 1 0 0
BITMAP
00
ENDCHAR
STARTCHAR acutecomb.case
ENCODING -1
SWIDTH 0 0
DWIDTH 0 0
BBX 2 3 2 20
BITMAP
40
80
80
ENDCHAR
STARTCHAR uni0302.case
ENCODING -1
SWIDTH 0 0
DWIDTH 0 0
BBX 4 3 2 20
BITMAP
40
A0
90
ENDCHAR
STARTCHAR uni0308.case
ENCODING -1
SWIDTH 0 0
DWIDTH 0 0
BBX 3 3 2 20
BITMAP
A0
A0
A0
ENDCHAR
STARTCHAR uni0307.case
ENCODING -1
SWIDTH 0 0
DWIDTH 0 0
BBX 1 3 1 20
BITMAP
80
80
80
ENDCHAR
STARTCHAR gravecomb.case
ENCODING -1
SWIDTH 0 0
DWIDTH 0 0
BBX 2 3 2 20
BITMAP
80
80
40
ENDCHAR
STARTCHAR uni030A.case
ENCODING -1
SWIDTH 0 0
DWIDTH 0 0
BBX 3 3 2 20
BITMAP
C0
A0
C0
ENDCHAR
STARTCHAR tildecomb.case
ENCODING -1
SWIDTH 0 0
DWIDTH 0 0
BBX 5 2 2 20
BITMAP
C8
B0
ENDCHAR
ENDFONT
